<svg id="_1" data-name="1" xmlns="http://www.w3.org/2000/svg" xmlns:xlink="http://www.w3.org/1999/xlink" viewBox="0 0 239.4 62.32"><defs><style>.cls-1{fill:#0092b5;}.cls-10,.cls-11,.cls-12,.cls-13,.cls-14,.cls-15,.cls-16,.cls-17,.cls-18,.cls-19,.cls-2,.cls-20,.cls-21,.cls-22,.cls-23,.cls-24,.cls-25,.cls-26,.cls-27,.cls-28,.cls-29,.cls-3,.cls-30,.cls-31,.cls-32,.cls-33,.cls-34,.cls-35,.cls-36,.cls-37,.cls-38,.cls-39,.cls-4,.cls-40,.cls-41,.cls-42,.cls-43,.cls-44,.cls-45,.cls-46,.cls-47,.cls-48,.cls-49,.cls-5,.cls-50,.cls-51,.cls-52,.cls-53,.cls-54,.cls-55,.cls-56,.cls-57,.cls-58,.cls-59,.cls-6,.cls-60,.cls-61,.cls-62,.cls-63,.cls-64,.cls-65,.cls-66,.cls-67,.cls-68,.cls-69,.cls-7,.cls-70,.cls-71,.cls-72,.cls-73,.cls-74,.cls-75,.cls-76,.cls-77,.cls-78,.cls-8,.cls-9{fill:none;stroke-miterlimit:10;stroke-width:0.38px;}.cls-2{stroke:#9e9e9e;}.cls-3{stroke:#aab1b6;}.cls-4{stroke:#abb1b7;}.cls-5{stroke:#adb3b8;}.cls-6{stroke:#aeb3b8;}.cls-7{stroke:#afb4b9;}.cls-8{stroke:#b0b5ba;}.cls-9{stroke:#b0b6bb;}.cls-10{stroke:#b1b7bc;}.cls-11{stroke:#b2b7bc;}.cls-12{stroke:#b3b8bd;}.cls-13{stroke:#b5b9be;}.cls-14{stroke:#b6babf;}.cls-15{stroke:#b7bbc0;}.cls-16{stroke:#b8bcc0;}.cls-17{stroke:#b9bdc1;}.cls-18{stroke:#babec2;}.cls-19{stroke:#bbbfc3;}.cls-20{stroke:#bdc0c4;}.cls-21{stroke:#bdc1c5;}.cls-22{stroke:#bec2c5;}.cls-23{stroke:#bfc3c6;}.cls-24{stroke:#c0c3c7;}.cls-25{stroke:#c2c5c8;}.cls-26{stroke:#c3c6c9;}.cls-27{stroke:#c4c6c9;}.cls-28{stroke:#c4c7ca;}.cls-29{stroke:#c5c8cc;}.cls-30{stroke:#c6c8cb;}.cls-31{stroke:#c7c9cc;}.cls-32{stroke:#c8cacd;}.cls-33{stroke:#c9cbce;}.cls-34{stroke:#cbcccf;}.cls-35{stroke:#cccdd0;}.cls-36{stroke:#cccdd1;}.cls-37{stroke:#cdced2;}.cls-38{stroke:#cecfd3;}.cls-39{stroke:#ced1d4;}.cls-40{stroke:#cfd1d4;}.cls-41{stroke:#d0d2d5;}.cls-42{stroke:#d1d3d6;}.cls-43{stroke:#d2d4d8;}.cls-44{stroke:#d3d5d7;}.cls-45{stroke:#d3d6d8;}.cls-46{stroke:#d4d7d9;}.cls-47{stroke:#d6d8da;}.cls-48{stroke:#d7d9db;}.cls-49{stroke:#d9dbdc;}.cls-50{stroke:#dadcde;}.cls-51{stroke:#dbdddf;}.cls-52{stroke:#dddfe0;}.cls-53{stroke:#dee0e1;}.cls-54{stroke:#dfe0e2;}.cls-55{stroke:#e0e1e2;}.cls-56{stroke:#e1e2e4;}.cls-57{stroke:#e2e4e5;}.cls-58{stroke:#e3e5e5;}.cls-59{stroke:#e4e6e6;}.cls-60{stroke:#e5e7e6;}.cls-61{stroke:#e7e8e7;}.cls-62{stroke:#e8e9e8;}.cls-63{stroke:#e9e9e9;}.cls-64{stroke:#eaeaeb;}.cls-65{stroke:#ebebec;}.cls-66{stroke:#ececed;}.cls-67{stroke:#eee;}.cls-68{stroke:#efefef;}.cls-69{stroke:#f0eff0;}.cls-70{stroke:#f1f0f1;}.cls-71{stroke:#f2f2f2;}.cls-72{stroke:#f4f4f4;}.cls-73{stroke:#f5f5f5;}.cls-74{stroke:#f6f6f6;}.cls-75{stroke:#f9f8f8;}.cls-76{stroke:#fafafa;}.cls-77{stroke:#fbfcfc;}.cls-78{stroke:#fff;}.cls-79{fill:url(#linear-gradient);}.cls-80{fill:url(#linear-gradient-2);}.cls-81{fill:url(#linear-gradient-3);}.cls-82{fill:url(#linear-gradient-4);}.cls-83{fill:url(#linear-gradient-5);}.cls-84{fill:url(#linear-gradient-6);}.cls-85{fill:url(#linear-gradient-7);}.cls-86{fill:url(#linear-gradient-8);}.cls-87{fill:url(#linear-gradient-9);}.cls-88{fill:url(#linear-gradient-10);}.cls-89{fill:url(#linear-gradient-11);}.cls-90{fill:url(#linear-gradient-12);}.cls-91{fill:url(#linear-gradient-13);}.cls-92{fill:url(#linear-gradient-14);}.cls-93{fill:url(#linear-gradient-15);}.cls-94{fill:url(#linear-gradient-16);}.cls-95{fill:url(#linear-gradient-17);}.cls-96{fill:url(#linear-gradient-18);}.cls-97{fill:url(#linear-gradient-19);}.cls-98{fill:url(#linear-gradient-20);}.cls-99{fill:url(#linear-gradient-21);}.cls-100{fill:#01416f;}</style><linearGradient id="linear-gradient" x1="65.85" y1="27.14" x2="240.38" y2="27.14" gradientUnits="userSpaceOnUse"><stop offset="0" stop-color="#0092b5"/><stop offset="1" stop-color="#01416f"/></linearGradient><linearGradient id="linear-gradient-2" x1="65.85" y1="38.18" x2="240.38" y2="38.18" xlink:href="#linear-gradient"/><linearGradient id="linear-gradient-3" x1="65.85" y1="27.14" x2="240.39" y2="27.14" xlink:href="#linear-gradient"/><linearGradient id="linear-gradient-4" x1="65.85" y1="38.03" x2="240.39" y2="38.03" xlink:href="#linear-gradient"/><linearGradient id="linear-gradient-5" x1="65.85" y1="37.97" x2="240.38" y2="37.97" xlink:href="#linear-gradient"/><linearGradient id="linear-gradient-6" x1="65.85" y1="27.14" x2="240.39" y2="27.14" xlink:href="#linear-gradient"/><linearGradient id="linear-gradient-7" x1="65.85" y1="26.89" x2="240.39" y2="26.89" xlink:href="#linear-gradient"/><linearGradient id="linear-gradient-8" x1="65.85" y1="37.96" x2="240.38" y2="37.96" xlink:href="#linear-gradient"/><linearGradient id="linear-gradient-9" x1="65.85" y1="27.14" x2="240.38" y2="27.14" xlink:href="#linear-gradient"/><linearGradient id="linear-gradient-10" x1="65.85" y1="27.14" x2="240.39" y2="27.14" xlink:href="#linear-gradient"/><linearGradient id="linear-gradient-11" x1="65.85" y1="37.58" x2="240.39" y2="37.58" xlink:href="#linear-gradient"/><linearGradient id="linear-gradient-12" x1="65.85" y1="37.65" x2="240.38" y2="37.65" xlink:href="#linear-gradient"/><linearGradient id="linear-gradient-13" x1="65.85" y1="27.14" x2="240.39" y2="27.14" xlink:href="#linear-gradient"/><linearGradient id="linear-gradient-14" x1="65.85" y1="37.52" x2="240.38" y2="37.52" xlink:href="#linear-gradient"/><linearGradient id="linear-gradient-15" x1="65.85" y1="37.43" x2="240.39" y2="37.43" xlink:href="#linear-gradient"/><linearGradient id="linear-gradient-16" x1="65.84" y1="37.34" x2="240.39" y2="37.34" xlink:href="#linear-gradient"/><linearGradient id="linear-gradient-17" x1="65.84" y1="27.14" x2="240.39" y2="27.14" xlink:href="#linear-gradient"/><linearGradient id="linear-gradient-18" x1="65.85" y1="27.14" x2="240.39" y2="27.14" xlink:href="#linear-gradient"/><linearGradient id="linear-gradient-19" x1="65.85" y1="37.24" x2="240.39" y2="37.24" xlink:href="#linear-gradient"/><linearGradient id="linear-gradient-20" x1="65.85" y1="27.14" x2="240.39" y2="27.14" xlink:href="#linear-gradient"/><linearGradient id="linear-gradient-21" x1="65.86" y1="37.04" x2="240.39" y2="37.04" xlink:href="#linear-gradient"/></defs><title>logo</title><polygon class="cls-1" points="15.51 30.94 22.65 6.3 31.37 40.85 33.88 32.18 53.97 32.18 53.97 15.58 26.99 0 0 15.58 0 30.94 15.51 30.94"/><polyline class="cls-2" points="53.97 36.38 37.13 36.38 30.75 55.91 22.28 21.79 19.11 34.77 0 34.77"/><polyline class="cls-3" points="53.97 36.33 37.09 36.33 30.76 55.72 22.29 21.59 19.06 34.73 0 34.73"/><polyline class="cls-4" points="53.97 36.28 37.05 36.28 30.76 55.52 22.29 21.39 19.01 34.68 0 34.68"/><polyline class="cls-5" points="53.97 36.22 37.01 36.22 30.77 55.33 22.3 21.19 18.97 34.63 0 34.63"/><polyline class="cls-6" points="53.97 36.17 36.97 36.17 30.78 55.14 22.3 21 18.92 34.58 0 34.58"/><polyline class="cls-7" points="53.97 36.11 36.92 36.11 30.79 54.95 22.31 20.8 18.88 34.53 0 34.53"/><polyline class="cls-8" points="53.97 36.06 36.88 36.06 30.8 54.75 22.31 20.6 18.83 34.48 0 34.48"/><polyline class="cls-9" points="53.97 36.01 36.84 36.01 30.8 54.56 22.32 20.4 18.78 34.43 0 34.43"/><polyline class="cls-10" points="53.97 35.95 36.8 35.95 30.81 54.37 22.32 20.2 18.74 34.38 0 34.38"/><polyline class="cls-11" points="53.97 35.9 36.76 35.9 30.82 54.17 22.33 20 18.69 34.33 0 34.33"/><polyline class="cls-12" points="53.97 35.84 36.72 35.84 30.83 53.98 22.33 19.8 18.64 34.28 0 34.28"/><polyline class="cls-13" points="53.97 35.79 36.67 35.79 30.84 53.79 22.34 19.61 18.6 34.23 0 34.23"/><polyline class="cls-14" points="53.97 35.74 36.63 35.74 30.84 53.59 22.34 19.41 18.55 34.19 0 34.19"/><polyline class="cls-14" points="53.97 35.68 36.59 35.68 30.85 53.4 22.34 19.21 18.51 34.14 0 34.14"/><polyline class="cls-15" points="53.97 35.63 36.55 35.63 30.86 53.21 22.35 19.01 18.46 34.09 0 34.09"/><polyline class="cls-16" points="53.97 35.58 36.51 35.58 30.87 53.02 22.35 18.81 18.41 34.04 0 34.04"/><polyline class="cls-17" points="53.97 35.52 36.47 35.52 30.88 52.82 22.36 18.61 18.37 33.99 0 33.99"/><polyline class="cls-18" points="53.97 35.47 36.42 35.47 30.88 52.63 22.36 18.41 18.32 33.94 0 33.94"/><polyline class="cls-19" points="53.97 35.41 36.38 35.41 30.89 52.44 22.37 18.21 18.27 33.89 0 33.89"/><polyline class="cls-20" points="53.97 35.36 36.34 35.36 30.9 52.24 22.37 18.02 18.23 33.84 0 33.84"/><polyline class="cls-21" points="53.97 35.3 36.3 35.3 30.91 52.05 22.38 17.82 18.18 33.79 0 33.79"/><polyline class="cls-22" points="53.97 35.25 36.26 35.25 30.92 51.86 22.38 17.62 18.14 33.74 0 33.74"/><polyline class="cls-23" points="53.97 35.2 36.22 35.2 30.92 51.66 22.39 17.42 18.09 33.69 0 33.69"/><polyline class="cls-24" points="53.97 35.14 36.17 35.14 30.93 51.47 22.39 17.22 18.05 33.64 0 33.64"/><polyline class="cls-25" points="53.97 35.09 36.13 35.09 30.94 51.28 22.4 17.02 18 33.59 0 33.59"/><polyline class="cls-26" points="53.97 35.03 36.09 35.03 30.95 51.08 22.4 16.82 17.95 33.55 0 33.55"/><polyline class="cls-27" points="53.97 34.98 36.05 34.98 30.95 50.89 22.41 16.63 17.91 33.5 0 33.5"/><polyline class="cls-28" points="53.97 34.93 36.01 34.93 30.96 50.7 22.41 16.43 17.86 33.45 0 33.45"/><polyline class="cls-29" points="53.97 34.87 35.97 34.87 30.97 50.51 22.41 16.23 17.82 33.4 0 33.4"/><polyline class="cls-30" points="53.97 34.82 35.92 34.82 30.98 50.31 22.42 16.03 17.77 33.35 0 33.35"/><polyline class="cls-31" points="53.97 34.77 35.88 34.77 30.99 50.12 22.42 15.83 17.72 33.3 0 33.3"/><polyline class="cls-32" points="53.97 34.71 35.84 34.71 31 49.93 22.43 15.63 17.68 33.25 0 33.25"/><polyline class="cls-33" points="53.97 34.66 35.8 34.66 31 49.73 22.43 15.44 17.63 33.2 0 33.2"/><polyline class="cls-34" points="53.97 34.6 35.76 34.6 31.01 49.54 22.44 15.24 17.58 33.15 0 33.15"/><polyline class="cls-35" points="53.97 34.55 35.72 34.55 31.02 49.35 22.44 15.04 17.54 33.1 0 33.1"/><polyline class="cls-36" points="53.97 34.49 35.67 34.49 31.03 49.15 22.45 14.84 17.49 33.05 0 33.05"/><polyline class="cls-37" points="53.97 34.44 35.63 34.44 31.04 48.96 22.45 14.64 17.45 33 0 33"/><polyline class="cls-38" points="53.97 34.39 35.59 34.39 31.04 48.77 22.46 14.44 17.4 32.95 0 32.95"/><polyline class="cls-39" points="53.97 34.33 35.55 34.33 31.05 48.57 22.46 14.24 17.35 32.91 0 32.91"/><polyline class="cls-40" points="53.97 34.28 35.51 34.28 31.06 48.38 22.47 14.05 17.31 32.86 0 32.86"/><polyline class="cls-41" points="53.97 34.23 35.47 34.23 31.07 48.19 22.47 13.85 17.26 32.81 0 32.81"/><polyline class="cls-42" points="53.97 34.17 35.42 34.17 31.07 47.99 22.48 13.65 17.21 32.76 0 32.76"/><polyline class="cls-43" points="53.97 34.12 35.38 34.12 31.08 47.8 22.48 13.45 17.17 32.71 0 32.71"/><polyline class="cls-44" points="53.97 34.06 35.34 34.06 31.09 47.61 22.48 13.25 17.12 32.66 0 32.66"/><polyline class="cls-45" points="53.97 34.01 35.3 34.01 31.1 47.42 22.49 13.05 17.08 32.61 0 32.61"/><polyline class="cls-46" points="53.97 33.96 35.26 33.96 31.11 47.22 22.5 12.85 17.03 32.56 0 32.56"/><polyline class="cls-47" points="53.97 33.9 35.22 33.9 31.11 47.03 22.5 12.66 16.98 32.51 0 32.51"/><polyline class="cls-48" points="53.97 33.85 35.17 33.85 31.12 46.84 22.5 12.46 16.94 32.46 0 32.46"/><polyline class="cls-49" points="53.97 33.79 35.13 33.79 31.13 46.64 22.51 12.26 16.89 32.41 0 32.41"/><polyline class="cls-50" points="53.97 33.74 35.09 33.74 31.14 46.45 22.51 12.06 16.85 32.36 0 32.36"/><polyline class="cls-51" points="53.97 33.69 35.05 33.69 31.15 46.26 22.52 11.86 16.8 32.31 0 32.31"/><polyline class="cls-52" points="53.97 33.63 35.01 33.63 31.15 46.06 22.52 11.66 16.75 32.27 0 32.27"/><polyline class="cls-53" points="53.97 33.58 34.97 33.58 31.16 45.87 22.53 11.46 16.71 32.22 0 32.22"/><polyline class="cls-54" points="53.97 33.52 34.92 33.52 31.17 45.68 22.53 11.27 16.66 32.17 0 32.17"/><polyline class="cls-55" points="53.97 33.47 34.88 33.47 31.18 45.48 22.54 11.07 16.62 32.12 0 32.12"/><polyline class="cls-56" points="53.97 33.42 34.84 33.42 31.18 45.29 22.54 10.87 16.57 32.07 0 32.07"/><polyline class="cls-57" points="53.97 33.36 34.8 33.36 31.19 45.1 22.55 10.67 16.52 32.02 0 32.02"/><polyline class="cls-58" points="53.97 33.31 34.76 33.31 31.2 44.91 22.55 10.47 16.48 31.97 0 31.97"/><polyline class="cls-59" points="53.97 33.26 34.71 33.26 31.21 44.71 22.56 10.27 16.43 31.92 0 31.92"/><polyline class="cls-60" points="53.97 33.2 34.67 33.2 31.22 44.52 22.56 10.07 16.39 31.87 0 31.87"/><polyline class="cls-61" points="53.97 33.15 34.63 33.15 31.23 44.33 22.56 9.88 16.34 31.82 0 31.82"/><polyline class="cls-62" points="53.97 33.09 34.59 33.09 31.23 44.13 22.57 9.68 16.29 31.77 0 31.77"/><polyline class="cls-63" points="53.97 33.04 34.55 33.04 31.24 43.94 22.57 9.48 16.25 31.73 0 31.73"/><polyline class="cls-64" points="53.97 32.98 34.51 32.98 31.25 43.75 22.58 9.28 16.2 31.68 0 31.68"/><polyline class="cls-65" points="53.97 32.93 34.46 32.93 31.26 43.55 22.58 9.08 16.16 31.63 0 31.63"/><polyline class="cls-66" points="53.97 32.88 34.42 32.88 31.27 43.36 22.59 8.88 16.11 31.58 0 31.58"/><polyline class="cls-67" points="53.97 32.82 34.38 32.82 31.27 43.17 22.59 8.69 16.06 31.53 0 31.53"/><polyline class="cls-68" points="53.97 32.77 34.34 32.77 31.28 42.98 22.6 8.49 16.02 31.48 0 31.48"/><polyline class="cls-69" points="53.97 32.72 34.3 32.72 31.29 42.78 22.6 8.29 15.97 31.43 0 31.43"/><polyline class="cls-70" points="53.97 32.66 34.26 32.66 31.3 42.59 22.61 8.09 15.92 31.38 0 31.38"/><polyline class="cls-71" points="53.97 32.61 34.21 32.61 31.3 42.4 22.61 7.89 15.88 31.33 0 31.33"/><polyline class="cls-72" points="53.97 32.55 34.17 32.55 31.31 42.2 22.62 7.69 15.83 31.28 0 31.28"/><polyline class="cls-73" points="53.97 32.5 34.13 32.5 31.32 42.01 22.62 7.49 15.79 31.23 0 31.23"/><polyline class="cls-74" points="53.97 32.45 34.09 32.45 31.33 41.82 22.63 7.29 15.74 31.18 0 31.18"/><polyline class="cls-75" points="53.97 32.39 34.05 32.39 31.34 41.62 22.63 7.1 15.69 31.13 0 31.13"/><polyline class="cls-76" points="53.97 32.34 34.01 32.34 31.34 41.43 22.64 6.9 15.65 31.09 0 31.09"/><polyline class="cls-77" points="53.97 32.28 33.96 32.28 31.35 41.24 22.64 6.7 15.6 31.04 0 31.04"/><polyline class="cls-78" points="53.97 32.23 33.92 32.23 31.36 41.04 22.64 6.5 15.56 30.99 0 30.99"/><polyline class="cls-78" points="0 30.94 15.51 30.94 22.65 6.3 31.37 40.85 33.88 32.18 53.97 32.18"/><polygon class="cls-79" points="81.05 32.52 81.05 28.66 72.08 28.66 72.08 26.31 81.97 26.31 81.97 21.75 66.42 21.75 66.42 32.52 81.05 32.52"/><polygon class="cls-80" points="66.42 36.07 66.42 40.52 82.23 40.52 82.23 35.83 66.42 36.07"/><path class="cls-81" d="M101.58,32.52a4.58,4.58,0,0,0-2.8-2.31,4.1,4.1,0,0,0,2.35-3.77c0-3.87-3.56-4.69-6.67-4.69H85V32.52Zm-11-6.5h3c1.35,0,2,.5,2,1.48s-.66,1.42-1.74,1.42H90.57Z"/><path class="cls-82" d="M85,35.79v4.73h9.86c3.46,0,6.8-1.15,7.16-5Z"/><polygon class="cls-83" points="104.51 35.5 104.51 40.52 110.24 40.52 110.24 35.41 104.51 35.5"/><path class="cls-84" d="M119.56,32.52a6.14,6.14,0,0,0,1.35-4.1c0-5.48-4.09-6.67-8.21-6.67h-8.19V32.52Zm-9.32-6.16h2.67c1.69,0,2.48.66,2.48,2,0,1.53-1,2-2.38,2h-2.77Z"/><path class="cls-85" d="M128.51,32.52A9.79,9.79,0,0,1,128.4,31c0-3.22,1.4-5.17,3.72-5.17s3.64,1.87,3.64,5a11.63,11.63,0,0,1-.12,1.65h5.86a13,13,0,0,0,.08-1.39c0-5.91-3.77-9.89-9.39-9.89-5.83,0-9.65,3.9-9.65,9.86a12.73,12.73,0,0,0,.09,1.41Z"/><path class="cls-86" d="M134.73,35a3,3,0,0,1-2.58,1.26,3.22,3.22,0,0,1-2.59-1.18l-6.29.1c1.37,3.57,4.59,5.75,8.88,5.75a8.86,8.86,0,0,0,8.82-6Z"/><path class="cls-87" d="M149.51,32.52c.06-1.28.09-2.77.09-3.65V21.75h-5.51V32.52Z"/><path class="cls-88" d="M154,32.52l1.72-3.68c-.08.86-.13,2.45-.15,3.68H161V21.75H154.9l-5.05,10.77Z"/><polygon class="cls-89" points="155.56 34.73 155.56 40.52 161.04 40.52 161.04 34.65 155.56 34.73"/><polygon class="cls-90" points="144.09 34.9 144.09 40.52 150.26 40.52 152.95 34.77 144.09 34.9"/><polygon class="cls-91" points="181.06 32.52 181.06 21.75 175.31 21.75 175.31 28.05 169.88 28.05 169.88 21.75 164.11 21.75 164.11 32.52 181.06 32.52"/><polygon class="cls-92" points="164.11 34.6 164.11 40.52 169.88 40.52 169.88 34.51 164.11 34.6"/><polygon class="cls-93" points="175.31 34.43 175.31 40.52 181.06 40.52 181.06 34.35 175.31 34.43"/><polygon class="cls-94" points="188.5 34.23 188.5 40.52 194.25 40.52 194.25 34.15 188.5 34.23"/><polygon class="cls-95" points="188.5 32.52 194.25 32.52 194.25 26.58 199.52 26.58 199.52 21.75 183.25 21.75 183.25 26.58 188.5 26.58 188.5 32.52"/><polygon class="cls-96" points="216.4 32.52 216.4 28.66 207.44 28.66 207.44 26.31 217.32 26.31 217.32 21.75 201.77 21.75 201.77 32.52 216.4 32.52"/><polygon class="cls-97" points="207.44 33.95 201.77 34.03 201.77 40.52 217.59 40.52 217.59 35.75 207.44 35.75 207.44 33.95"/><path class="cls-98" d="M224.77,32.52H234l-1.33-2,6-8.81h-6.41l-1.53,2.77c-.45.82-.84,1.63-1.24,2.48a27.4,27.4,0,0,0-1.4-2.77l-1.42-2.48h-6.75l6.2,8.81Z"/><path class="cls-99" d="M224,33.71l-4.67,6.81H226l1.79-3c.55-.9,1-1.82,1.5-2.77a21.23,21.23,0,0,0,1.37,2.69l1.82,3.06h7l-4.71-7Z"/><polygon class="cls-100" points="37.13 36.38 30.75 55.91 22.28 21.79 19.11 34.77 0 34.77 0 46.74 26.99 62.32 53.97 46.74 53.97 36.38 37.13 36.38"/></svg>